<svg xmlns="http://www.w3.org/2000/svg" xmlns:xlink="http://www.w3.org/1999/xlink" fill="none" version="1.1" width="30" height="29.999998092651367" viewBox="0 0 30 29.999998092651367"><defs><clipPath id="master_svg0_5_153"><rect x="0" y="0" width="30" height="29.999998092651367" rx="0"/></clipPath></defs><g clip-path="url(#master_svg0_5_153)"><g><path d="M15.000244140625,2.499998092651367C21.900244140625,2.499998092651367,27.500244140625,8.099998092651367,27.500244140625,14.999998092651367C27.500244140625,21.899998092651366,21.900244140625,27.499998092651367,15.000244140625,27.499998092651367C8.100244140625,27.499998092651367,2.500244140625,21.899998092651366,2.500244140625,14.999998092651367C2.500244140625,8.099998092651367,8.100244140625,2.499998092651367,15.000244140625,2.499998092651367ZM7.528994140625,19.269998092651367C9.363994140625,22.007498092651367,12.118994140625,23.749998092651367,15.200244140625,23.749998092651367C18.280244140625,23.749998092651367,21.036444140625,22.00869809265137,22.870244140625,19.269998092651367C20.789944140625,17.325698092651365,18.047644140625,16.24599809265137,15.200244140625,16.249998092651367C12.352374140625,16.245698092651367,9.609634140625001,17.32539809265137,7.528994140625,19.269998092651367ZM15.000244140625,13.749998092651367C17.071344140625,13.749998092651367,18.750244140625,12.071068092651368,18.750244140625,9.999998092651367C18.750244140625,7.928928092651367,17.071344140625,6.249998092651367,15.000244140625,6.249998092651367C12.929144140625,6.249998092651367,11.250244140625,7.928928092651367,11.250244140625,9.999998092651367C11.250244140625,12.071068092651368,12.929144140625,13.749998092651367,15.000244140625,13.749998092651367Z" fill="#CBD5E0" fill-opacity="1" style="mix-blend-mode:passthrough"/></g></g></svg>