<svg xmlns="http://www.w3.org/2000/svg" xmlns:xlink="http://www.w3.org/1999/xlink" fill="none" version="1.1" width="101.001708984375" height="100.626220703125" viewBox="0 0 101.001708984375 100.626220703125"><g><g><g><g><g><path d="M3.3760022653808592,65.249755859375L38.31350326538086,65.249755859375L38.31350326538086,48.249755859375L38.31350326538086,47.499755859375L38.31350326538086,46.249755859375L3.3760022653808592,46.249755859375C3.0635022653808592,46.249755859375,2.8760032653808594,46.312254859375,2.8760032653808594,46.624754859375L2.8760032653808594,47.499755859375L2.8760032653808594,48.249755859375L2.8760032653808594,64.687255859375C2.8760020732908593,64.999755859375,3.0635022653808592,65.249755859375,3.3760022653808592,65.249755859375ZM3.6260012653808595,46.999753859375L37.56350326538086,46.999753859375L37.56350326538086,49.124755859375L3.6260012653808595,49.124755859375L3.6260012653808595,46.999753859375ZM3.6260012653808595,49.937265859375L37.56350326538086,49.937265859375L37.56350326538086,64.499755859375L3.6260012653808595,64.499755859375L3.6260012653808595,49.937265859375Z" fill="#FFFFFF" fill-opacity="1" style="mix-blend-mode:passthrough"/></g></g><g><g><path d="M38.50117301940918,65.43839263916016L3.37617401940918,65.43839263916016C3.0011730194091797,65.43839263916016,2.6886730194091797,65.06339263916016,2.6886730194091797,64.68839263916016L2.6886730194091797,46.62589463916016C2.6886730194091797,46.438392639160156,2.7511733194091796,46.125892639160156,3.37617401940918,46.125892639160156L38.50117301940918,46.125892639160156L38.50117301940918,65.43839263916016ZM3.37617401940918,46.375893639160154C3.0011730194091797,46.375893639160154,3.0011730194091797,46.50089163916016,3.0011730194091797,46.563395639160156L3.0011730194091797,64.68839263916016C3.0011730194091797,64.87589263916016,3.12617401940918,65.12589263916016,3.37617401940918,65.12589263916016L38.18867301940918,65.12589263916016L38.18867301940918,46.375893639160154L3.37617401940918,46.375893639160154ZM37.75127301940918,64.62589263916016L3.5011730194091797,64.62589263916016L3.5011730194091797,49.750892639160156L37.75127301940918,49.750892639160156L37.75127301940918,64.62589263916016ZM3.8136730194091797,64.31339263916016L37.43867301940918,64.31339263916016L37.43867301940918,50.063392639160156L3.8136730194091797,50.063392639160156L3.8136730194091797,64.31339263916016ZM37.75127301940918,49.313392639160156L3.5011730194091797,49.313392639160156L3.5011730194091797,46.875895639160156L37.75127301940918,46.875895639160156L37.75127301940918,49.313392639160156ZM3.8136730194091797,49.000892639160156L37.43867301940918,49.000892639160156L37.43867301940918,47.188392639160156L3.8136730194091797,47.188392639160156L3.8136730194091797,49.000892639160156Z" fill="#FFFFFF" fill-opacity="1" style="mix-blend-mode:passthrough"/></g></g></g><g><g><g><ellipse cx="20.749378323554993" cy="70.12501537799835" rx="0.6250001192092896" ry="0.6250001192092896" fill="#FFFFFF" fill-opacity="1" style="mix-blend-mode:passthrough"/></g></g><g><g><path d="M20.751953125,70.87527465820312C20.314453125,70.87527465820312,20.001953125,70.56277465820312,20.001953125,70.12527265820313C20.001953125,69.68777465820312,20.314453125,69.37527465820312,20.751953125,69.37527465820312C21.189453125,69.37527465820312,21.501953125,69.68777465820312,21.501953125,70.12527265820313C21.501953125,70.56277465820312,21.189453125,70.87527465820312,20.751953125,70.87527465820312ZM20.751953125,69.68777465820312C20.501952125,69.68777465820312,20.314453125,69.87527765820313,20.314453125,70.12527265820313C20.314453125,70.37526965820312,20.501952125,70.56277465820312,20.751953125,70.56277465820312C21.001953125,70.56277465820312,21.189453125,70.37526965820312,21.189453125,70.12527265820313C21.189453125,69.87527765820313,21.001951125,69.68777465820312,20.751953125,69.68777465820312Z" fill="#FFFFFF" fill-opacity="1" style="mix-blend-mode:passthrough"/></g></g></g><g><g><g><path d="M40.50065994262695,43.31309509277344L0.7506599426269531,43.31309509277344C0.3756589426269531,43.31309509277344,0.12565994262695312,43.62559509277344,0.12565994262695312,44.00059409277344L0.12565994262695312,71.81309509277344C0.12565994262695312,72.18809509277344,0.3131599426269531,72.56309509277344,0.7506599426269531,72.56309509277344L14.750659942626953,72.56309509277344L14.750659942626953,75.50059509277344L11.000659942626953,75.50059509277344L11.000659942626953,76.31309509277344L30.188159942626953,76.31309509277344L30.188159942626953,75.50059509277344L26.438159942626953,75.50059509277344L26.438159942626953,72.56309509277344L40.50065994262695,72.56309509277344C40.87565994262695,72.56309509277344,41.12565994262695,72.25059509277344,41.12565994262695,71.81309509277344L41.12565994262695,44.063093092773435C41.06315994262695,43.62559509277344,40.87565994262695,43.31309509277344,40.50065994262695,43.31309509277344ZM15.563159942626953,75.50059509277344L15.563159942626953,72.56309509277344L25.563159942626953,72.56309509277344L25.563159942626953,75.50059509277344L15.563159942626953,75.50059509277344ZM40.25065994262695,71.75059509277344L26.313159942626953,71.75059509277344L14.938159942626953,71.75059509277344L1.0006599426269531,71.75059509277344L1.0006599426269531,68.43809509277344L40.25065994262695,68.43809509277344L40.25065994262695,71.75059509277344ZM40.25065994262695,67.56309509277344L1.0006599426269531,67.56309509277344L1.0006599426269531,44.18809109277344L40.25065994262695,44.18809109277344L40.25065994262695,67.56309509277344Z" fill="#FFFFFF" fill-opacity="1" style="mix-blend-mode:passthrough"/></g></g><g><g><path d="M30.375,76.50078582763672L10.8125,76.50078582763672L10.8125,75.37578582763672L14.5625,75.37578582763672L14.5625,72.75078582763672L0.75,72.75078582763672C0.3125,72.75078582763672,0,72.37578582763672,0,71.87578582763672L0,44.063286827636716C0,43.56328482763672,0.3125,43.18828582763672,0.75,43.18828582763672L40.5,43.18828582763672C40.9375,43.18828582763672,41.25,43.56328482763672,41.25,44.063286827636716L41.25,71.87578582763672C41.25,72.37578582763672,40.9375,72.75078582763672,40.5,72.75078582763672L26.625,72.75078582763672L26.625,75.37578582763672L30.375,75.37578582763672L30.375,76.50078582763672ZM11.125,76.18828582763672L30,76.18828582763672L30,75.68828582763672L26.25,75.68828582763672L26.25,72.43828582763672L40.5,72.43828582763672C40.8125,72.43828582763672,40.9375,72.12578582763672,40.9375,71.87578582763672L40.9375,44.063286827636716C40.9375,43.81328582763672,40.8125,43.50078582763672,40.5,43.50078582763672L0.75,43.50078582763672C0.4375,43.50078582763672,0.3125,43.81328582763672,0.3125,44.063286827636716L0.3125,71.87578582763672C0.3125,72.12578582763672,0.4375,72.43828582763672,0.75,72.43828582763672L14.9375,72.43828582763672L14.9375,75.68828582763672L11.1875,75.68828582763672L11.1875,76.18828582763672L11.125,76.18828582763672ZM25.75,75.68828582763672L15.4375,75.68828582763672L15.4375,72.43828582763672L25.75,72.43828582763672L25.75,75.68828582763672ZM15.75,75.37578582763672L25.4375,75.37578582763672L25.4375,72.75078582763672L15.75,72.75078582763672L15.75,75.37578582763672ZM40.375,71.87578582763672L0.812501,71.87578582763672L0.812501,68.25078582763672L40.375,68.25078582763672L40.375,71.87578582763672ZM1.125,71.56328582763672L40.0625,71.56328582763672L40.0625,68.56328582763672L1.125,68.56328582763672L1.125,71.56328582763672ZM40.375,67.75078582763672L0.812501,67.75078582763672L0.812501,44.00078782763672L40.375,44.00078782763672L40.375,67.75078582763672ZM1.125,67.43828582763672L40.0625,67.43828582763672L40.0625,44.31328582763672L1.125,44.31328582763672L1.125,67.43828582763672Z" fill="#FFFFFF" fill-opacity="1" style="mix-blend-mode:passthrough"/></g></g></g></g><g><g><g><g><path d="M55.062947134277344,22.12457847595215L90.00045013427734,22.12457847595215L90.00045013427734,5.062078475952148L90.00045013427734,4.312078475952148L90.00045013427734,3.0620784759521484L55.062952134277346,3.0620784759521484C54.750452134277346,3.0620784759521484,54.562950134277344,3.1245787759521484,54.562950134277344,3.4370784759521484L54.562950134277344,4.312078475952148L54.562950134277344,5.062078475952148L54.562950134277344,21.49957847595215C54.562945365907346,21.81207847595215,54.750447134277344,22.12457847595215,55.062947134277344,22.12457847595215ZM55.31294313427735,3.8120784759521484L89.25045013427734,3.8120784759521484L89.25045013427734,5.937078475952148L55.31294313427735,5.937078475952148L55.31294313427735,3.8120784759521484ZM55.31294313427735,6.749578475952148L89.25045013427734,6.749578475952148L89.25045013427734,21.31207847595215L55.31294313427735,21.31207847595215L55.31294313427735,6.749578475952148Z" fill="#FFFFFF" fill-opacity="1" style="mix-blend-mode:passthrough"/></g></g><g><g><path d="M90.18769073486328,22.250110626220703L55.062689734863284,22.250110626220703C54.68769073486328,22.250110626220703,54.37519073486328,21.875110626220703,54.37519073486328,21.500110626220703L54.37519073486328,3.437610626220703C54.37519073486328,3.250110626220703,54.437689734863284,2.937610626220703,55.062689734863284,2.937610626220703L90.18769073486328,2.937610626220703L90.18769073486328,22.250110626220703ZM55.062689734863284,3.187610626220703C54.68769073486328,3.187610626220703,54.68769073486328,3.312610626220703,54.68769073486328,3.375110626220703L54.68769073486328,21.437610626220703C54.68769073486328,21.625110626220703,54.81268873486328,21.875110626220703,55.062689734863284,21.875110626220703L89.87519073486328,21.875110626220703L89.87519073486328,3.125110626220703L55.062689734863284,3.125110626220703L55.062689734863284,3.187610626220703ZM89.37519073486328,21.500110626220703L55.12518473486328,21.500110626220703L55.12518473486328,6.562610626220703L89.37519073486328,6.562610626220703L89.37519073486328,21.500110626220703ZM55.43769073486328,21.187610626220703L89.06269073486328,21.187610626220703L89.06269073486328,6.875110626220703L55.43768073486328,6.875110626220703L55.43769073486328,21.187610626220703ZM89.37519073486328,6.125110626220703L55.12518473486328,6.125110626220703L55.12518473486328,3.687609626220703L89.37519073486328,3.687609626220703L89.37519073486328,6.125110626220703ZM55.43769073486328,5.812610626220703L89.06269073486328,5.812610626220703L89.06269073486328,4.000110626220703L55.43768073486328,4.000110626220703L55.43769073486328,5.812610626220703Z" fill="#FFFFFF" fill-opacity="1" style="mix-blend-mode:passthrough"/></g></g></g><g><g><g><ellipse cx="72.43876659870148" cy="26.937828183174133" rx="0.6250001192092896" ry="0.6250001192092896" fill="#FFFFFF" fill-opacity="1" style="mix-blend-mode:passthrough"/></g></g><g><g><path d="M72.43853759765625,27.687259674072266C72.00103759765625,27.687259674072266,71.68853759765625,27.374759674072266,71.68853759765625,26.937257674072267C71.68853759765625,26.499759674072266,72.00103759765625,26.187259674072266,72.43853759765625,26.187259674072266C72.87603759765625,26.187259674072266,73.18853759765625,26.499759674072266,73.18853759765625,26.937257674072267C73.18853759765625,27.374759674072266,72.87603759765625,27.687259674072266,72.43853759765625,27.687259674072266ZM72.43853759765625,26.499759674072266C72.18853659765625,26.499759674072266,72.00103759765625,26.687262674072265,72.00103759765625,26.937257674072267C72.00103759765625,27.187254674072264,72.18853659765625,27.374759674072266,72.43853759765625,27.374759674072266C72.68853759765625,27.374759674072266,72.87603759765625,27.187254674072264,72.87603759765625,26.937257674072267C72.87603759765625,26.687262674072265,72.68853559765626,26.499759674072266,72.43853759765625,26.499759674072266Z" fill="#FFFFFF" fill-opacity="1" style="mix-blend-mode:passthrough"/></g></g></g><g><g><g><path d="M92.12489318847656,0.18784713745117188L52.37489318847656,0.18784713745117188C51.99989418847656,0.18784713745117188,51.74989318847656,0.5003471374511719,51.74989318847656,0.8753481374511719L51.74989318847656,28.687847137451172C51.74989318847656,29.062847137451172,51.937395188476565,29.437847137451172,52.37489318847656,29.437847137451172L66.37489318847656,29.437847137451172L66.37489318847656,32.37534713745117L62.62489318847656,32.37534713745117L62.62489318847656,33.18784713745117L81.81239318847656,33.18784713745117L81.81239318847656,32.37534713745117L78.06239318847656,32.37534713745117L78.06239318847656,29.437847137451172L92.06239318847656,29.437847137451172C92.43739318847656,29.437847137451172,92.68739318847656,29.125347137451172,92.68739318847656,28.687847137451172L92.68739318847656,0.8753481374511719C92.74989318847656,0.5003471374511719,92.56239318847656,0.18784713745117188,92.12489318847656,0.18784713745117188ZM67.24989318847656,32.31284713745117L67.24989318847656,29.375347137451172L77.24989318847656,29.375347137451172L77.24989318847656,32.31284713745117L67.24989318847656,32.31284713745117ZM91.87489318847656,28.562847137451172L77.93739318847656,28.562847137451172L66.56239318847656,28.562847137451172L52.62489018847656,28.562847137451172L52.62489018847656,25.250347137451172L91.87489318847656,25.250347137451172L91.87489318847656,28.562847137451172ZM91.87489318847656,24.375347137451172L52.62489018847656,24.375347137451172L52.62489018847656,1.000348137451172L91.87489318847656,1.000348137451172L91.87489318847656,24.375347137451172Z" fill="#FFFFFF" fill-opacity="1" style="mix-blend-mode:passthrough"/></g></g><g><g><path d="M82.06295776367188,33.3125L62.562957763671875,33.3125L62.562957763671875,32.1875L66.31295776367188,32.1875L66.31295776367188,29.5625L52.37545576367187,29.5625C51.937957763671875,29.5625,51.625457763671875,29.1875,51.625457763671875,28.6875L51.625457763671875,0.875C51.625457763671875,0.375,51.937957763671875,0,52.37545576367187,0L92.12545776367188,0C92.56295776367188,0,92.87545776367188,0.375,92.87545776367188,0.875L92.87545776367188,28.6875C92.87545776367188,29.1875,92.56295776367188,29.5625,92.12545776367188,29.5625L78.25045776367188,29.5625L78.25045776367188,32.1875L82.00045776367188,32.1875L82.00045776367188,33.3125L82.06295776367188,33.3125ZM62.812957763671875,33L81.75045776367188,33L81.75045776367188,32.5L78.00045776367188,32.5L78.00045776367188,29.25L92.18795776367188,29.25C92.50045776367188,29.25,92.62545776367188,28.9375,92.62545776367188,28.6875L92.62545776367188,0.875C92.62545776367188,0.625,92.50045776367188,0.3125,92.18795776367188,0.3125L52.37545576367187,0.3125C52.06295576367187,0.3125,51.937957763671875,0.625,51.937957763671875,0.875L51.937957763671875,28.6875C51.937957763671875,28.9375,52.06295576367187,29.25,52.37545576367187,29.25L66.56295776367188,29.25L66.56295776367188,32.5L62.812957763671875,32.5L62.812957763671875,33ZM77.43795776367188,32.5L67.12545776367188,32.5L67.12545776367188,29.25L77.43795776367188,29.25L77.43795776367188,32.5ZM67.43795776367188,32.1875L77.12545776367188,32.1875L77.12545776367188,29.5625L67.43795776367188,29.5625L67.43795776367188,32.1875ZM92.06295776367188,28.75L52.50045376367188,28.75L52.50045376367188,25.125L92.06295776367188,25.125L92.06295776367188,28.75ZM52.812957763671875,28.4375L91.75045776367188,28.4375L91.75045776367188,25.4375L52.812957763671875,25.4375L52.812957763671875,28.4375ZM92.06295776367188,24.5625L52.50045376367188,24.5625L52.50045376367188,0.812499L92.06295776367188,0.812499L92.06295776367188,24.5625ZM52.812957763671875,24.25L91.75045776367188,24.25L91.75045776367188,1.125L52.812957763671875,1.125L52.812957763671875,24.25Z" fill="#FFFFFF" fill-opacity="1" style="mix-blend-mode:passthrough"/></g></g></g></g><g><g><g><g><path d="M63.188374380371094,89.37539672851562L98.1258773803711,89.37539672851562L98.1258773803711,72.31288672851562L98.1258773803711,71.56289672851562L98.1258773803711,70.31289672851562L63.188379380371096,70.31289672851562C62.875879380371096,70.31289672851562,62.688377380371094,70.37540052851563,62.688377380371094,70.68790072851563L62.688377380371094,71.56289672851562L62.688377380371094,72.31288672851562L62.688377380371094,88.75039672851562C62.688372612001096,89.12539672851562,62.875874380371094,89.37539672851562,63.188374380371094,89.37539672851562ZM63.4383703803711,71.12539872851562L97.3758773803711,71.12539872851562L97.3758773803711,73.25039672851562L63.4383703803711,73.25039672851562L63.4383703803711,71.12539872851562ZM63.4383703803711,74.06289672851562L97.3758773803711,74.06289672851562L97.3758773803711,88.62539672851562L63.4383703803711,88.62539672851562L63.4383703803711,74.06289672851562Z" fill="#FFFFFF" fill-opacity="1" style="mix-blend-mode:passthrough"/></g></g><g><g><path d="M98.31250762939453,89.56391906738281L63.187506629394534,89.56391906738281C62.81250762939453,89.56391906738281,62.50000762939453,89.18891906738281,62.50000762939453,88.81391906738281L62.50000762939453,70.75142106738281C62.50000762939453,70.56391906738281,62.562506629394534,70.25141906738281,63.187506629394534,70.25141906738281L98.31250762939453,70.25141906738281L98.31250762939453,89.56391906738281ZM63.187506629394534,70.50141506738281C62.81250762939453,70.50141506738281,62.81250762939453,70.62641306738281,62.81250762939453,70.68891706738282L62.81250762939453,88.75141906738281C62.81250762939453,88.93891906738281,62.93750562939453,89.18891906738281,63.187506629394534,89.18891906738281L98.00000762939453,89.18891906738281L98.00000762939453,70.43891106738282L63.187506629394534,70.43891106738282L63.187506629394534,70.50141506738281ZM97.50000762939453,88.75141906738281L63.25000162939453,88.75141906738281L63.25000162939453,73.87640906738281L97.50000762939453,73.87640906738281L97.50000762939453,88.75141906738281ZM63.56250762939453,88.43891906738281L97.18750762939453,88.43891906738281L97.18750762939453,74.18890906738281L63.56249762939453,74.18890906738281L63.56250762939453,88.43891906738281ZM97.50000762939453,73.43891906738281L63.25000162939453,73.43891906738281L63.25000162939453,71.00141806738282L97.50000762939453,71.00141806738282L97.50000762939453,73.43891906738281ZM63.56250762939453,73.12641906738281L97.18750762939453,73.12641906738281L97.18750762939453,71.31391906738281L63.56249762939453,71.31391906738281L63.56250762939453,73.12641906738281Z" fill="#FFFFFF" fill-opacity="1" style="mix-blend-mode:passthrough"/></g></g></g><g><g><g><ellipse cx="80.56413280963898" cy="94.25053417682648" rx="0.6250001192092896" ry="0.6250001192092896" fill="#FFFFFF" fill-opacity="1" style="mix-blend-mode:passthrough"/></g></g><g><g><path d="M80.5633544921875,94.99945068359375C80.1258544921875,94.99945068359375,79.8133544921875,94.68695068359375,79.8133544921875,94.24944868359376C79.8133544921875,93.81195068359375,80.1258544921875,93.49945068359375,80.5633544921875,93.49945068359375C81.0008544921875,93.49945068359375,81.3133544921875,93.81195068359375,81.3133544921875,94.24944868359376C81.3133544921875,94.68695068359375,81.0008544921875,94.99945068359375,80.5633544921875,94.99945068359375ZM80.5633544921875,93.81195068359375C80.3133534921875,93.81195068359375,80.1258544921875,93.99945368359376,80.1258544921875,94.24944868359376C80.1258544921875,94.49944568359375,80.3133534921875,94.68695068359375,80.5633544921875,94.68695068359375C80.8133544921875,94.68695068359375,81.0008544921875,94.49944568359375,81.0008544921875,94.24944868359376C81.0008544921875,93.99945368359376,80.8133524921875,93.81195068359375,80.5633544921875,93.81195068359375Z" fill="#FFFFFF" fill-opacity="1" style="mix-blend-mode:passthrough"/></g></g></g><g><g><g><path d="M100.24971008300781,67.43753814697266L60.49971008300781,67.43753814697266C60.12471108300781,67.43753814697266,59.87471008300781,67.75003814697266,59.87471008300781,68.12503714697266L59.87471008300781,95.93753814697266C59.87471008300781,96.31253814697266,60.062212083007815,96.68753814697266,60.49971008300781,96.68753814697266L74.49971008300781,96.68753814697266L74.49971008300781,99.62503814697266L70.74971008300781,99.62503814697266L70.74971008300781,100.43753814697266L89.93721008300781,100.43753814697266L89.93721008300781,99.62503814697266L86.18721008300781,99.62503814697266L86.18721008300781,96.68753814697266L100.18721008300781,96.68753814697266C100.56221008300781,96.68753814697266,100.81221008300781,96.37503814697266,100.81221008300781,95.93753814697266L100.81221008300781,68.12503714697266C100.87471008300781,67.75003814697266,100.68721008300781,67.43753814697266,100.24971008300781,67.43753814697266ZM75.37471008300781,99.62503814697266L75.37471008300781,96.68753814697266L85.37471008300781,96.68753814697266L85.37471008300781,99.62503814697266L75.37471008300781,99.62503814697266ZM99.99971008300781,95.87503814697266L86.06221008300781,95.87503814697266L74.68721008300781,95.87503814697266L60.74970708300781,95.87503814697266L60.74970708300781,92.56253814697266L99.99971008300781,92.56253814697266L99.99971008300781,95.87503814697266ZM99.99971008300781,91.68753814697266L60.74970708300781,91.68753814697266L60.74970708300781,68.31252914697265L99.99971008300781,68.31252914697265L99.99971008300781,91.68753814697266Z" fill="#FFFFFF" fill-opacity="1" style="mix-blend-mode:passthrough"/></g></g><g><g><path d="M90.18930053710938,100.62621307373047L70.68930053710938,100.62621307373047L70.68930053710938,99.50121307373047L74.43930053710938,99.50121307373047L74.43930053710938,96.87621307373047L60.50179853710937,96.87621307373047C60.064300537109375,96.87621307373047,59.751800537109375,96.50121307373047,59.751800537109375,96.00121307373047L59.751800537109375,68.18871407373047C59.751800537109375,67.68871207373047,60.064300537109375,67.31371307373047,60.50179853710937,67.31371307373047L100.25180053710938,67.31371307373047C100.68930053710938,67.31371307373047,101.00180053710938,67.68871207373047,101.00180053710938,68.18871407373047L101.00180053710938,96.00121307373047C101.00180053710938,96.50121307373047,100.68930053710938,96.87621307373047,100.25180053710938,96.87621307373047L86.37680053710938,96.87621307373047L86.37680053710938,99.50121307373047L90.12680053710938,99.50121307373047L90.12680053710938,100.62621307373047L90.18930053710938,100.62621307373047ZM70.93930053710938,100.31371307373047L89.87680053710938,100.31371307373047L89.87680053710938,99.81371307373047L86.12680053710938,99.81371307373047L86.12680053710938,96.56371307373047L100.31430053710938,96.56371307373047C100.62680053710938,96.56371307373047,100.75180053710938,96.25121307373047,100.75180053710938,96.00121307373047L100.75180053710938,68.18871407373047C100.75180053710938,67.93871807373047,100.62680053710938,67.62621307373047,100.31430053710938,67.62621307373047L60.50179853710937,67.62621307373047C60.18929853710937,67.62621307373047,60.064300537109375,67.93871807373047,60.064300537109375,68.18871407373047L60.064300537109375,96.00121307373047C60.064300537109375,96.25121307373047,60.18929853710937,96.56371307373047,60.50179853710937,96.56371307373047L74.68930053710938,96.56371307373047L74.68930053710938,99.81371307373047L70.93930053710938,99.81371307373047L70.93930053710938,100.31371307373047ZM85.56430053710938,99.81371307373047L75.25180053710938,99.81371307373047L75.25180053710938,96.56371307373047L85.56430053710938,96.56371307373047L85.56430053710938,99.81371307373047ZM75.56430053710938,99.50121307373047L85.25180053710938,99.50121307373047L85.25180053710938,96.87621307373047L75.56430053710938,96.87621307373047L75.56430053710938,99.50121307373047ZM100.18930053710938,96.00121307373047L60.62679653710938,96.00121307373047L60.62679653710938,92.37621307373047L100.18930053710938,92.37621307373047L100.18930053710938,96.00121307373047ZM60.939300537109375,95.68871307373047L99.87680053710938,95.68871307373047L99.87680053710938,92.68871307373047L60.939300537109375,92.68871307373047L60.939300537109375,95.68871307373047ZM100.18930053710938,91.87621307373047L60.62679653710938,91.87621307373047L60.62679653710938,68.18871407373047L100.18930053710938,68.18871407373047L100.18930053710938,91.87621307373047ZM60.939300537109375,91.56371307373047L99.87680053710938,91.56371307373047L99.87680053710938,68.43871307373047L60.939300537109375,68.43871307373047L60.939300537109375,91.56371307373047Z" fill="#FFFFFF" fill-opacity="1" style="mix-blend-mode:passthrough"/></g></g></g></g><g><g><g><g><path d="M53.002037048339844,91.5618896484375C40.627037048339844,91.5618896484375,29.064527048339844,85.9993896484375,21.314537048339844,76.3743916484375L22.314534048339844,75.5618896484375C29.814537048339844,84.9368796484375,41.064537048339844,90.3118896484375,53.064537048339844,90.3118896484375C55.439537048339844,90.3118896484375,57.814537048339844,90.1243896484375,60.064537048339844,89.6868896484375L60.314537048339844,90.9368896484375C57.877037048339844,91.3118896484375,55.439537048339844,91.5618896484375,53.002037048339844,91.5618896484375Z" fill="#FFFFFF" fill-opacity="1" style="mix-blend-mode:passthrough"/></g></g></g></g><g><g><g><g><path d="M89.87425231933594,67.93749237060547L88.74925231933594,67.43749237060547C91.12425231933594,62.24999237060547,92.37425231933594,56.68749237060547,92.37425231933594,50.93749237060547C92.37425231933594,43.31249237060547,90.18674231933593,35.68749237060547,86.18675231933594,29.43749237060547L87.24925231933594,28.74999237060547C91.37424231933593,35.18750237060547,93.62425231933594,43.06249237060547,93.62425231933594,50.93749237060547C93.62425231933594,56.87499237060547,92.37425231933594,62.62499237060547,89.87425231933594,67.93749237060547Z" fill="#FFFFFF" fill-opacity="1" style="mix-blend-mode:passthrough"/></g></g></g></g><g><g><g><g><path d="M14.25013542175293,43.938323974609375L13.00013542175293,43.688323974609375C16.37513542175293,24.813323974609375,32.75013542175293,10.813325974609375,51.93763542175293,10.313323974609375L52.00013542175293,11.563323974609375C33.37513542175293,12.063323974609375,17.56263542175293,25.625823974609375,14.25013542175293,43.938323974609375Z" fill="#FFFFFF" fill-opacity="1" style="mix-blend-mode:passthrough"/></g></g></g></g></g></svg>