<svg xmlns="http://www.w3.org/2000/svg" xmlns:xlink="http://www.w3.org/1999/xlink" fill="none" version="1.1" width="24" height="24" viewBox="0 0 24 24"><defs><clipPath id="master_svg0_11_128"><rect x="0" y="0" width="24" height="24" rx="0"/></clipPath></defs><g clip-path="url(#master_svg0_11_128)"><g><path d="M2.132000425201416,13.63000384349823C1.952626025201416,12.55070384349823,1.952626025201416,11.44926384349823,2.132000425201416,10.37000384349823C3.233999425201416,10.39600384349823,4.223999425201416,9.86800384349823,4.608999425201416,8.93900384349823C4.993999425201416,8.009003843498231,4.666999425201416,6.93500384349823,3.868999425201416,6.17600384349823C4.505409425201416,5.28528384349823,5.284569425201417,4.50580384349823,6.174999425201416,3.8690038434982297C6.934999425201416,4.667003843498231,8.008999425201416,4.994003843498231,8.938999425201416,4.60900384349823C9.868999425201416,4.22400384349823,10.395999425201415,3.23300384349823,10.368999425201416,2.13199984349823C11.448919425201415,1.95240514349823,12.551069425201415,1.95240514349823,13.630969425201416,2.13199984349823C13.603969425201416,3.23400384349823,14.131969425201415,4.22400384349823,15.060969425201415,4.60900384349823C15.990969425201415,4.994003843498231,17.06496942520142,4.667003843498231,17.823969425201415,3.8690038434982297C18.714669425201414,4.50541384349823,19.494169425201417,5.28456384349823,20.130969425201418,6.17500384349823C19.332969425201416,6.93500384349823,19.005969425201418,8.009003843498231,19.390969425201416,8.93900384349823C19.775969425201417,9.86900384349823,20.766969425201417,10.39600384349823,21.867969425201416,10.36900384349823C22.047569425201416,11.44891384349823,22.047569425201416,12.55110384349823,21.867969425201416,13.63100384349823C20.765969425201416,13.60400384349823,19.775969425201417,14.13200384349823,19.390969425201416,15.06100384349823C19.005969425201418,15.99100384349823,19.332969425201416,17.065003843498232,20.130969425201418,17.824003843498232C19.494569425201416,18.71470384349823,18.715469425201416,19.49420384349823,17.824969425201417,20.13100384349823C17.06496942520142,19.33300384349823,15.990969425201415,19.00600384349823,15.060969425201415,19.39100384349823C14.130969425201416,19.77600384349823,13.603969425201416,20.76700384349823,13.630969425201416,21.86800384349823C12.551069425201415,22.04760384349823,11.448919425201415,22.04760384349823,10.368999425201416,21.86800384349823C10.395999425201415,20.76600384349823,9.867999425201415,19.77600384349823,8.938999425201416,19.39100384349823C8.008999425201416,19.00600384349823,6.934999425201416,19.33300384349823,6.175999425201416,20.13100384349823C5.285289425201416,19.49460384349823,4.505799425201416,18.71540384349823,3.868999425201416,17.82500384349823C4.666999425201416,17.065003843498232,4.993999425201416,15.99100384349823,4.608999425201416,15.06100384349823C4.223999425201416,14.13100384349823,3.232999425201416,13.60400384349823,2.132000425201416,13.63100384349823L2.132000425201416,13.63000384349823ZM11.999969425201416,15.00000384349823C13.656869425201416,15.00000384349823,14.999969425201416,13.65690384349823,14.999969425201416,12.00000384349823C14.999969425201416,10.34314384349823,13.656869425201416,9.00000384349823,11.999969425201416,9.00000384349823C10.343149425201416,9.00000384349823,8.999999425201416,10.34314384349823,8.999999425201416,12.00000384349823C8.999999425201416,13.65690384349823,10.343149425201416,15.00000384349823,11.999969425201416,15.00000384349823Z" fill="#CBD5E0" fill-opacity="1" style="mix-blend-mode:passthrough"/></g></g></svg>