<svg xmlns="http://www.w3.org/2000/svg" xmlns:xlink="http://www.w3.org/1999/xlink" fill="none" version="1.1" width="133" height="94" viewBox="0 0 133 94"><g><path d="M21.168,13.824L32.76,13.824L29.952,33.948Q29.772,34.992,29.016,35.352Q28.26,35.712,27.252,35.712L22.86,35.712L24.408,34.344L26.82,17.244L26.352,17.244L21.168,35.712L17.064,35.712L22.248,17.244L21.24,17.244L16.02,35.712L11.916,35.712L16.56,19.296L14.22,19.296L16.884,11.268L16.164,10.404L22.32,10.404L21.168,13.824ZM7.164,15.876L8.532,15.876L9.324,10.404L14.112,10.404L13.32,15.876L14.004,15.876L13.536,19.296L12.852,19.296L11.952,25.596L13.356,25.452L12.888,28.872L11.448,29.052L10.44,36.324L4.968,36.324L5.904,29.628L0.36,30.24L0.864,26.82L6.408,26.208L7.38,19.296L6.336,19.296L5.544,22.716L1.44,22.716L3.672,13.392L2.88,12.456L7.992,12.456L7.164,15.876ZM48.564,32.292L47.16,32.436L46.62,36.324L41.832,36.324L42.3,32.904L34.02,33.66L34.632,29.196L35.64,29.124L37.692,14.508L36.72,14.508L37.188,11.088L50.868,11.088L50.4,14.508L49.68,14.508L47.808,27.972L49.212,27.828L48.564,32.292ZM53.1,21.348L54.252,17.928L50.58,17.928L51.084,14.508L52.632,14.508L52.38,11.268L51.66,10.404L57.132,10.404L57.384,14.508L59.04,14.508L60.516,10.404L65.34,10.404L63.864,14.508L64.764,14.508L64.26,17.928L60.696,17.928L59.544,21.348L64.476,21.348L64.008,24.768L60.588,24.768L62.352,36.324L56.592,36.324L55.692,30.6L53.748,36.324L47.988,36.324L51.912,24.768L48.96,24.768L49.428,21.348L53.1,21.348ZM41.328,22.716L43.74,22.716L44.136,19.98L41.724,19.98L41.328,22.716ZM40.5,28.656L42.948,28.44L43.272,26.136L40.86,26.136L40.5,28.656ZM42.192,16.56L44.604,16.56L44.892,14.508L42.48,14.508L42.192,16.56ZM83.808,15.912L80.028,24.66L81.18,32.94L78.012,32.94L77.616,29.664L76.392,32.976L73.332,32.976L72.864,36.252L67.32,36.252L70.668,12.42L69.624,11.052L98.28,11.052L95.04,34.2Q94.896,35.1,94.14,35.694Q93.384,36.288,92.52,36.288L86.256,36.288L89.712,33.012L89.712,32.94L86.472,32.94L86.076,29.7L84.816,32.976L81.18,32.976L84.996,24.408L83.844,15.912L87.264,15.912L87.552,19.44L88.704,15.912L92.016,15.912L88.56,24.588L89.748,32.76L92.304,14.472L75.924,14.472L75.708,15.912L78.948,15.912L79.128,19.44L80.28,15.912L83.808,15.912ZM73.512,31.536L76.608,24.408L75.672,16.128L73.512,31.536ZM129.888,16.848L118.296,16.848L117.828,20.304L130.752,20.304L130.284,23.724L117.324,23.724L115.596,36.216L108.792,36.216L110.52,23.724L101.052,23.724L101.52,20.304L111.024,20.304L112.212,11.736L111.024,10.476L119.196,10.476L118.8,13.392L130.392,13.392L129.888,16.848ZM126.864,33.552L120.888,33.552L118.584,25.344L124.56,25.344L126.864,33.552ZM27.36,70.4L26.604,75.872L9.468,75.872L9.324,76.88L27.144,76.88L26.208,83.324L1.584,83.324L3.42,70.4L0.684,70.4L1.44,64.928L12.528,64.928L12.384,63.956L20.34,63.956L20.484,64.928L31.536,64.928L30.78,70.4L27.36,70.4ZM24.984,58.772L32.4,58.772L32.04,61.508L28.584,61.508L29.7,63.56L24.228,63.56L23.22,61.76L22.176,63.56L16.02,63.56L19.044,58.34L18.252,57.404L25.776,57.404L24.984,58.772ZM10.584,58.772L17.352,58.772L16.992,61.508L14.184,61.508L15.336,63.56L9.864,63.56L8.856,61.76L7.812,63.56L1.656,63.56L4.68,58.34L3.888,57.404L11.412,57.404L10.584,58.772ZM7.668,69.356L24.084,69.356L24.228,68.348L7.812,68.348L7.668,69.356ZM8.928,79.616L8.784,80.66L19.764,80.66L19.908,79.616L8.928,79.616ZM10.008,72.092L9.864,73.136L20.124,73.136L20.268,72.092L10.008,72.092ZM51.588,73.784L51.876,71.696L45.9,71.696L47.808,58.052L65.88,58.052L63.972,71.696L57.348,71.696L57.06,73.784L63.612,73.784L63.108,77.204L56.592,77.204L56.304,79.256L63.612,79.256L63.144,82.676L43.596,82.676L44.064,79.256L50.832,79.256L51.12,77.204L45.036,77.204L45.54,73.784L51.588,73.784ZM37.512,67.376L38.376,61.256L36.648,61.256L37.08,58.052L46.584,58.052L46.152,61.256L44.064,61.256L43.2,67.376L45.396,67.376L44.856,71.012L42.696,71.012L41.76,77.816L43.848,77.42L43.38,80.912L33.444,82.676L33.912,79.256L35.892,78.896L37.008,71.012L35.136,71.012L35.676,67.376L37.512,67.376ZM51.048,63.236L53.1,63.236L53.352,61.292L51.336,61.292L51.048,63.236ZM59.868,68.42L60.12,66.476L58.104,66.476L57.816,68.42L59.868,68.42ZM58.824,61.292L58.572,63.236L60.552,63.236L60.84,61.292L58.824,61.292ZM52.344,68.42L52.632,66.476L50.616,66.476L50.364,68.42L52.344,68.42ZM98.244,58.088L97.776,61.508L87.48,61.508L86.256,70.4L97.884,70.4L97.416,73.82L85.788,73.82L84.456,83.324L77.616,83.324L78.948,73.82L67.32,73.82L67.788,70.4L79.416,70.4L80.64,61.508L70.416,61.508L70.884,58.088L98.244,58.088ZM90.072,62.876L96.228,62.876L93.996,69.032L87.84,69.032L90.072,62.876ZM78.264,69.032L72.108,69.032L71.604,62.876L77.76,62.876L78.264,69.032ZM129.744,70.4L128.016,82.604L101.556,82.604L103.284,70.4L129.744,70.4ZM127.728,58.808L130.284,69.032L124.452,69.032L124.308,68.492L103.464,68.492L103.824,65.9L109.008,58.268L108.144,57.44L117.036,57.44L111.636,65.18L123.48,65.18L121.896,58.808L127.728,58.808ZM121.716,79.184L122.472,73.784L109.512,73.784L108.756,79.184L121.716,79.184Z" fill="#FFFFFF" fill-opacity="1"/></g></svg>