<svg xmlns="http://www.w3.org/2000/svg" xmlns:xlink="http://www.w3.org/1999/xlink" fill="none" version="1.1" width="67" height="23" viewBox="0 0 67 23"><g><path d="M3.798,9.486L3.942,10.89L4.554,9.468L4.788,7.776L1.71,7.776L1.962,6.066L7.416,6.066L6.93,9.504L4.896,13.464L5.94,18.108L3.708,18.108L3.348,16.47L2.448,18.144L-0.126,18.144L2.358,13.41L1.512,9.486L1.692,8.28L3.978,8.28L3.798,9.486ZM11.79,12.582L12.546,12.582L15.102,18.126L12.096,18.126L10.62,14.922L9.036,18.108L6.084,18.108L10.548,9.288L13.428,9.288L11.79,12.582ZM11.574,6.516L16.704,6.516L16.434,8.442L15.768,10.296L13.392,10.296L14.148,8.244L10.728,8.244L9.72,10.332L6.948,10.332L9,5.688L8.568,5.202L12.222,5.202L11.574,6.516ZM30.402,7.416L29.43,7.416L28.278,15.714L25.83,15.714L27.234,5.706L33.066,5.706L32.04,12.996Q31.95,13.518,31.554,13.869Q31.158,14.22,30.636,14.22L28.8,14.22L29.574,13.302L30.402,7.416ZM26.586,7.182L25.308,7.38L24.606,12.276L25.902,12.006L25.632,13.914L21.726,14.94L23.004,5.796L26.856,5.274L26.586,7.182ZM16.614,17.856L17.604,16.074L18.432,10.188L17.694,10.188L17.946,8.424L21.762,8.424L20.772,15.408L23.076,16.056L31.626,16.056L31.374,17.856L21.618,17.856L20.034,17.154L19.692,17.856L16.614,17.856ZM21.222,5.544L21.78,7.596L18.954,7.596L18.396,5.544L21.222,5.544ZM42.354,8.514L42.462,7.776L38.97,7.776L39.204,6.12L42.696,6.12L42.75,5.778L42.228,5.22L45.918,5.22L45.792,6.12L49.104,6.12L48.87,7.776L45.558,7.776L45.45,8.514L48.834,8.514L48.186,13.068L44.298,13.068L42.822,14.796L45.126,16.182L48.114,16.182L47.844,18.126L43.722,18.126L41.454,16.398L39.978,18.126L37.152,18.126L39.762,15.084L37.782,13.572L41.058,13.572L41.49,13.068L38.304,13.068L38.952,8.514L42.354,8.514ZM38.34,7.272L36.828,18.126L33.696,18.126L35.1,7.956L34.254,8.136L34.542,6.084L38.628,5.22L38.34,7.272ZM41.922,11.574L42.138,10.026L41.202,10.026L40.986,11.574L41.922,11.574ZM45.234,10.026L45.018,11.574L45.936,11.574L46.152,10.026L45.234,10.026ZM61.578,16.488L61.866,14.436L59.472,14.436L58.95,18.162L55.53,18.162L56.052,14.436L53.514,14.436L52.794,18.162L49.716,18.162L52.038,6.192L51.48,5.544L66.186,5.544L64.584,16.974Q64.512,17.496,64.116,17.829Q63.72,18.162,63.198,18.162L59.976,18.162L61.578,16.488ZM60.48,7.254L60.21,9.144L62.604,9.144L62.874,7.254L60.48,7.254ZM59.706,12.726L62.1,12.726L62.37,10.854L59.976,10.854L59.706,12.726ZM53.856,12.726L56.286,12.726L56.556,10.854L54.216,10.854L53.856,12.726ZM54.54,9.144L56.79,9.144L57.06,7.254L54.918,7.254L54.54,9.144Z" fill="#FFFFFF" fill-opacity="1"/></g></svg>