<svg xmlns="http://www.w3.org/2000/svg" xmlns:xlink="http://www.w3.org/1999/xlink" fill="none" version="1.1" width="133" height="31" viewBox="0 0 133 31"><g><path d="M7.656,8.976L5.568,22.56L1.2,22.56L2.808,9.888L2.112,8.976L7.656,8.976ZM24.504,8.976Q24.84,8.976,25.128,9.096Q25.416,9.216,25.62,9.432Q25.824,9.648,25.896,9.936Q25.968,10.224,25.872,10.584L24.264,22.56L11.352,22.56Q11.016,22.56,10.728,22.44Q10.44,22.32,10.236,22.104Q10.032,21.888,9.96,21.588Q9.888,21.288,9.984,20.952L11.592,8.976L24.504,8.976ZM15.744,11.28L14.592,20.256L19.896,20.256L21.264,11.28L15.744,11.28ZM31.536,22.56L33.144,11.28L28.08,11.28L28.32,8.976L43.056,8.976L42.6,11.28L37.752,11.28L36.144,22.56L31.536,22.56ZM62.376,15.6L61.872,19.248L50.448,19.248L50.352,19.92L62.232,19.92L61.608,24.216L45.192,24.216L46.416,15.6L44.592,15.6L45.096,11.952L52.488,11.952L52.392,11.304L57.696,11.304L57.792,11.952L65.16,11.952L64.656,15.6L62.376,15.6ZM60.792,7.848L65.736,7.848L65.496,9.672L63.192,9.672L63.936,11.04L60.288,11.04L59.616,9.84L58.92,11.04L54.816,11.04L56.832,7.56L56.304,6.936L61.32,6.936L60.792,7.848ZM51.192,7.848L55.704,7.848L55.464,9.672L53.592,9.672L54.36,11.04L50.712,11.04L50.04,9.84L49.344,11.04L45.24,11.04L47.256,7.56L46.728,6.936L51.744,6.936L51.192,7.848ZM49.248,14.904L60.192,14.904L60.288,14.232L49.344,14.232L49.248,14.904ZM50.088,21.744L49.992,22.44L57.312,22.44L57.408,21.744L50.088,21.744ZM50.808,16.728L50.712,17.424L57.552,17.424L57.648,16.728L50.808,16.728ZM78.528,17.856L78.72,16.464L74.736,16.464L76.008,7.368L88.056,7.368L86.784,16.464L82.368,16.464L82.176,17.856L86.544,17.856L86.208,20.136L81.864,20.136L81.672,21.504L86.544,21.504L86.232,23.784L73.2,23.784L73.512,21.504L78.024,21.504L78.216,20.136L74.16,20.136L74.496,17.856L78.528,17.856ZM69.144,13.584L69.72,9.504L68.568,9.504L68.856,7.368L75.192,7.368L74.904,9.504L73.512,9.504L72.936,13.584L74.4,13.584L74.04,16.008L72.6,16.008L71.976,20.544L73.368,20.28L73.056,22.608L66.432,23.784L66.744,21.504L68.064,21.264L68.808,16.008L67.56,16.008L67.92,13.584L69.144,13.584ZM78.168,10.824L79.536,10.824L79.704,9.528L78.36,9.528L78.168,10.824ZM84.048,14.28L84.216,12.984L82.872,12.984L82.68,14.28L84.048,14.28ZM83.352,9.528L83.184,10.824L84.504,10.824L84.696,9.528L83.352,9.528ZM79.032,14.28L79.224,12.984L77.88,12.984L77.712,14.28L79.032,14.28ZM109.632,7.392L109.32,9.672L102.456,9.672L101.64,15.6L109.392,15.6L109.08,17.88L101.328,17.88L100.44,24.216L95.88,24.216L96.768,17.88L89.016,17.88L89.328,15.6L97.08,15.6L97.896,9.672L91.08,9.672L91.392,7.392L109.632,7.392ZM104.184,10.584L108.288,10.584L106.8,14.688L102.696,14.688L104.184,10.584ZM96.312,14.688L92.208,14.688L91.872,10.584L95.976,10.584L96.312,14.688ZM130.632,15.6L129.48,23.736L111.84,23.736L112.992,15.6L130.632,15.6ZM129.288,7.872L130.992,14.688L127.104,14.688L127.008,14.328L113.112,14.328L113.352,12.6L116.808,7.512L116.232,6.96L122.16,6.96L118.56,12.12L126.456,12.12L125.4,7.872L129.288,7.872ZM125.28,21.456L125.784,17.856L117.144,17.856L116.64,21.456L125.28,21.456Z" fill="#5995FD" fill-opacity="1"/></g></svg>